<svg width="20" height="18" viewBox="0 0 20 18" fill="none" xmlns="http://www.w3.org/2000/svg">
<path d="M17.9297 4.92139C17.9557 5.02555 17.9688 5.19482 17.9688 5.4292C17.9688 7.3042 17.513 9.1141 16.6016 10.8589C15.6641 12.7078 14.349 14.1792 12.6562 15.2729C10.8073 16.4969 8.6849 17.1089 6.28906 17.1089C3.9974 17.1089 1.90104 16.4969 0 15.2729C0.286458 15.299 0.611979 15.312 0.976562 15.312C2.8776 15.312 4.58333 14.7261 6.09375 13.5542C5.18229 13.5542 4.375 13.2938 3.67188 12.7729C2.99479 12.2261 2.52604 11.549 2.26562 10.7417C2.52604 10.7677 2.77344 10.7808 3.00781 10.7808C3.3724 10.7808 3.73698 10.7417 4.10156 10.6636C3.16406 10.4552 2.38281 9.97347 1.75781 9.21826C1.13281 8.46305 0.820312 7.60368 0.820312 6.64014V6.56201C1.39323 6.90055 2.00521 7.08285 2.65625 7.10889C2.10938 6.71826 1.66667 6.22347 1.32812 5.62451C0.989583 5.02555 0.820312 4.37451 0.820312 3.67139C0.820312 2.94222 1.01562 2.25212 1.40625 1.60107C2.42188 2.87712 3.65885 3.89274 5.11719 4.64795C6.60156 5.40316 8.17708 5.81982 9.84375 5.89795C9.79167 5.58545 9.76562 5.27295 9.76562 4.96045C9.76562 4.23128 9.94792 3.5542 10.3125 2.9292C10.6771 2.27816 11.1719 1.77035 11.7969 1.40576C12.4219 1.04118 13.099 0.858887 13.8281 0.858887C14.4271 0.858887 14.974 0.976074 15.4688 1.21045C15.9896 1.44482 16.4453 1.75732 16.8359 2.14795C17.7734 1.96566 18.6458 1.64014 19.4531 1.17139C19.1406 2.13493 18.5417 2.89014 17.6562 3.43701C18.4375 3.33285 19.2188 3.11149 20 2.77295C19.4271 3.60628 18.737 4.32243 17.9297 4.92139Z" fill="white"/>
</svg>
